<svg xmlns="http://www.w3.org/2000/svg" version="1.1" xmlns:xlink="http://www.w3.org/1999/xlink" xmlns:svgjs="http://svgjs.dev/svgjs" width="2000" height="2024" viewBox="0 0 2000 2024"><g transform="matrix(1,0,0,1,1.4630540047970726,0.8194331983804659)"><svg viewBox="0 0 244 247" data-background-color="#ffffff" preserveAspectRatio="xMidYMid meet" height="2024" width="2000" xmlns="http://www.w3.org/2000/svg" xmlns:xlink="http://www.w3.org/1999/xlink"><g id="tight-bounds" transform="matrix(1,0,0,1,-0.17849258858524308,-0.09999999999999432)"><svg viewBox="0 0 244.3569851771705 247.2" height="247.2" width="244.3569851771705"><g><svg viewBox="0 0 395.52000000000004 400.12174781543587" height="247.2" width="244.3569851771705"><g transform="matrix(1,0,0,1,0,281.46574781543586)"><svg viewBox="0 0 395.52000000000004 118.656" height="118.656" width="395.52000000000004"><g id="textblocktransform"><svg viewBox="0 0 395.52000000000004 118.656" height="118.656" width="395.52000000000004" id="textblock"><g><svg viewBox="0 0 395.52000000000004 118.656" height="118.656" width="395.52000000000004"><g transform="matrix(1,0,0,1,0,0)"><svg width="395.52000000000004" viewBox="0 -29.5 151.49000549316406 45.45000076293945" height="118.656" data-palette-color="#fce44d"><path d="M4.5 0L0 0 0-29.5 4.5-29.5 4.5 0ZM7.5 0L6 0 6-29.5 7.5-29.5 7.5 0ZM10.5 0L9 0 9-29.5 10.5-29.5 10.5 0ZM16.5 0L12 0 12-29.5 16.5-29.5 16.5 0ZM24 0L22.5 0 22.5-29.5 24-29.5 24 0ZM9.15 15.95L9.15 4.35 12.55 4.35Q14.55 4.35 15.45 5.25L15.45 5.25Q16.4 6.1 16.4 7.7L16.4 7.7Q16.4 8.7 15.75 9.6L15.75 9.6Q15.1 10.5 14.05 10.8L14.05 10.8 16.75 15.95 15.3 15.95 12.7 10.85 10.45 10.85 10.45 15.95 9.15 15.95ZM10.45 9.7L12.7 9.7Q13.9 9.7 14.5 9.15L14.5 9.15Q15.05 8.65 15.05 7.7L15.05 7.7Q15.05 6.75 14.5 6.15L14.5 6.15Q13.9 5.6 12.7 5.6L12.7 5.6 10.45 5.6 10.45 9.7ZM30 0L25.5 0 25.5-29.5 30-29.5 30 0ZM37.5 0L36 0 36-29.5 37.5-29.5 37.5 0ZM43.5 0L39 0 39-29.5 43.5-29.5 43.5 0ZM46.5 0L45 0 45-29.5 46.5-29.5 46.5 0ZM49.5 0L48 0 48-29.5 49.5-29.5 49.5 0ZM37.7 15.95L37.7 11.4 34.1 4.35 35.6 4.35 38.45 10 41 4.35 42.4 4.35 39.1 11.4 39.1 15.95 37.7 15.95ZM52.5 0L51 0 51-29.5 52.5-29.5 52.5 0ZM55.5 0L54 0 54-29.5 55.5-29.5 55.5 0ZM61.5 0L57 0 57-29.5 61.5-29.5 61.5 0ZM67.5 0L63 0 63-29.5 67.5-29.5 67.5 0ZM75 0L73.5 0 73.5-29.5 75-29.5 75 0ZM62.95 15.95L62.95 5.5 59.7 5.5 59.7 4.35 67.7 4.35 67.7 5.5 64.3 5.5 64.3 15.95 62.95 15.95ZM80.99 0L76.49 0 76.49-29.5 80.99-29.5 80.99 0ZM83.99 0L82.49 0 82.49-29.5 83.99-29.5 83.99 0ZM86.99 0L85.49 0 85.49-29.5 86.99-29.5 86.99 0ZM97.49 0L92.99 0 92.99-29.5 97.49-29.5 97.49 0ZM100.49 0L98.99 0 98.99-29.5 100.49-29.5 100.49 0ZM85.54 15.95L85.54 4.35 87.04 4.35 87.04 4.5Q86.94 4.6 86.89 4.75L86.89 4.75Q86.89 4.85 86.89 5.2L86.89 5.2 86.89 9.3 91.39 9.3 91.39 4.35 92.94 4.35 92.94 4.5Q92.84 4.6 92.79 4.75L92.79 4.75Q92.79 4.85 92.79 5.2L92.79 5.2 92.79 15.95 91.39 15.95 91.39 10.45 86.89 10.45 86.89 15.95 85.54 15.95ZM106.49 0L101.99 0 101.99-29.5 106.49-29.5 106.49 0ZM112.49 0L107.99 0 107.99-29.5 112.49-29.5 112.49 0ZM115.49 0L113.99 0 113.99-29.5 115.49-29.5 115.49 0ZM118.49 0L116.99 0 116.99-29.5 118.49-29.5 118.49 0ZM125.99 0L124.49 0 124.49-29.5 125.99-29.5 125.99 0ZM110.84 15.95L110.84 4.35 111.89 4.35 114.74 10.05 117.64 4.35 118.64 4.35 118.64 15.95 117.39 15.95 117.39 7.2 114.89 11.9 114.39 11.9 112.04 7.25 112.04 15.95 110.84 15.95ZM128.99 0L127.49 0 127.49-29.5 128.99-29.5 128.99 0ZM139.49 0L134.99 0 134.99-29.5 139.49-29.5 139.49 0ZM145.49 0L140.99 0 140.99-29.5 145.49-29.5 145.49 0ZM148.49 0L146.99 0 146.99-29.5 148.49-29.5 148.49 0ZM151.49 0L149.99 0 149.99-29.5 151.49-29.5 151.49 0ZM136.54 15.95L136.54 15.05 142.34 5.55 136.74 5.55 136.74 4.35 143.89 4.35 143.89 5.3 138.14 14.8 143.39 14.8Q143.69 14.8 143.84 14.75L143.84 14.75Q143.94 14.7 144.09 14.6L144.09 14.6 144.19 14.6 144.19 15.95 136.54 15.95Z" opacity="1" transform="matrix(1,0,0,1,0,0)" fill="#fce44d" class="wordmark-text-0" data-fill-palette-color="primary" id="text-0"></path></svg></g></svg></g></svg></g></svg></g><g transform="matrix(1,0,0,1,85.03895994828208,0)"><svg viewBox="0 0 225.44208010343587 225.44208010343587" height="132" width="220"><g><svg></svg></g><g id="icon-0"><svg viewBox="0 0 225.44208010343587 225.44208010343587" height="225.44208010343587" width="225.44208010343587"><g><path d="M0 112.721c0-62.254 50.467-112.721 112.721-112.721 62.254 0 112.721 50.467 112.721 112.721 0 62.254-50.467 112.721-112.721 112.721-62.254 0-112.721-50.467-112.721-112.721zM112.721 214.742c56.344 0 102.021-45.676 102.021-102.021 0-56.344-45.676-102.021-102.021-102.02-56.344 0-102.021 45.676-102.02 102.02 0 56.344 45.676 102.021 102.02 102.021z" data-fill-palette-color="accent" fill="#fbeaab" stroke="transparent"></path></g><g transform="matrix(1,0,0,1,60.671653949148485,49.223592489384814)"><svg viewBox="0 0 104.0987722051389 126.99489512466624" height="126.99489512466624" width="104.0987722051389"><g><svg xmlns="http://www.w3.org/2000/svg" xmlns:xlink="http://www.w3.org/1999/xlink" version="1.1" x="0" y="0" viewBox="4.543999671936035 4.208000183105469 19.332000732421875 23.583999633789062" enable-background="new 0 0 32 32" xml:space="preserve" height="126.99489512466624" width="104.0987722051389" class="icon-s-0" data-fill-palette-color="accent" id="s-0"><path d="M10.96 8.042v6.041 9.862c-0.677-0.45-1.636-0.736-2.708-0.736-2.048 0-3.708 1.025-3.708 2.292 0 1.265 1.66 2.291 3.708 2.291s3.708-1.026 3.708-2.291V13.786l10.916-3.24v9.565c-0.678-0.45-1.635-0.736-2.709-0.736-2.047 0-3.707 1.025-3.707 2.292 0 1.265 1.66 2.291 3.707 2.291 2.049 0 3.709-1.026 3.709-2.291V10.249 4.208L10.96 8.042z" fill="#fbeaab" data-fill-palette-color="accent"></path></svg></g></svg></g></svg></g></svg></g><g></g></svg></g><defs></defs></svg><rect width="244.3569851771705" height="247.2" fill="none" stroke="none" visibility="hidden"></rect></g></svg></g></svg> 